PathFileType	4	(X/Y/Z)	Walk10.trc
DataRate	CameraRate	NumFrames	NumMarkers	Units	OrigDataRate	OrigDataStartFrame	OrigNumFrames
200.000000	200.000000	4	56	mm	200.000000	335	519
Frame#	Times		RBHD		C7		RASI		RACR1		RUA1		RElbow		RFA1		LFA1		RTH3		RTH2		RTB1		RTB3		RMT1		LTH2		RMT5		RLFC		LElbowM		RTH1		RWRU		RTB2		LElbow		RTB4		RMMAL		LACR1		LTH3		LTH4		LWRU		CLAV		LASI		LTB1		LPSI		RPSI		T10		LLFC		RTH4		LBHD		RCAR		LTB3		LTH1		LTB4		RToe		LWRR		LMT1		RBack		LMMAL		LCAL		LFHD		LTB2		LLMAL		RLMAL		LCAR		LToe		LMT5		RElbowM		LUA1		RCAL
			X1	Y1	Z1	X2	Y2	Z2	X3	Y3	Z3	X4	Y4	Z4	X5	Y5	Z5	X6	Y6	Z6	X7	Y7	Z7	X8	Y8	Z8	X9	Y9	Z9	X10	Y10	Z10	X11	Y11	Z11	X12	Y12	Z12	X13	Y13	Z13	X14	Y14	Z14	X15	Y15	Z15	X16	Y16	Z16	X17	Y17	Z17	X18	Y18	Z18	X19	Y19	Z19	X20	Y20	Z20	X21	Y21	Z21	X22	Y22	Z22	X23	Y23	Z23	X24	Y24	Z24	X25	Y25	Z25	X26	Y26	Z26	X27	Y27	Z27	X28	Y28	Z28	X29	Y29	Z29	X30	Y30	Z30	X31	Y31	Z31	X32	Y32	Z32	X33	Y33	Z33	X34	Y34	Z34	X35	Y35	Z35	X36	Y36	Z36	X37	Y37	Z37	X38	Y38	Z38	X39	Y39	Z39	X40	Y40	Z40	X41	Y41	Z41	X42	Y42	Z42	X43	Y43	Z43	X44	Y44	Z44	X45	Y45	Z45	X46	Y46	Z46	X47	Y47	Z47	X48	Y48	Z48	X49	Y49	Z49	X50	Y50	Z50	X51	Y51	Z51	X52	Y52	Z52	X53	Y53	Z53	X54	Y54	Z54	X55	Y55	Z55	X56	Y56	Z56

335	1.675	245.69	1561.7	397.88	209.96	1420.5	341.03	280.92	915.53	491.78	287.98	1380.3	483.68	294.55	1205.5	588.61	299.05	1081.3	644.14	431.47	1006.2	644.16	118.12	941.9	35.628	146.73	536.08	502.74	235.8	617.6	493.53	84.791	338.3	405.36	-49.989	204.65	399.24	-82.823	42.752	337.66	414.88	680.66	192.41	-108.97	35.345	423.07	112.21	437.69	489.08	84.44	1088.3	167.32	188.1	720.15	526.3	518.17	914.85	619.65	5.7523	279.01	476.54	91.539	1090	87.968	20.106	272.32	402.85	-132.87	160.68	350.34	228.26	1396.1	162.81	394.03	567.67	178.45	354.41	646.1	157.06	63.887	833.88	42.7	343	1338	319.27	310.18	927.11	187.89	492.34	384.77	270.45	125.95	941.08	264.57	111.97	942.15	368.9	110.42	1111.4	330.46	439.28	463.91	203.63	167.88	626.56	518.32	244.68	1556.9	259.53	586.7	918.96	618.03	496.8	200.04	286.49	311.15	733.56	146.62	492.28	292.03	279.14	-36.504	24.454	357.63	142.31	820.95	61.001	598.89	41.352	347.85	146.03	1329.6	451.53	467.99	94.43	348.56	395.14	28.986	309.07	427.98	1575.5	281.57	471.33	285.88	210.45	441.38	69.675	263.1	-165.46	162.91	435.02	114.86	773.28	14.36	640.43	51.733	333.46	578.8	33.755	260.93	276.11	1029.7	561.16	147.06	1206.8	87.635	-230.65	159.42	389.94
336	1.68	252.93	1562.2	397	217.59	1421.2	340.53	288.35	915.47	491.45	295.55	1381	483.15	300.91	1205.8	588.18	304.78	1081.6	643.82	436.41	1005.4	643.85	126.17	941.78	35.478	158.19	534.33	503.42	246.04	617.42	493.29	96.257	337.15	406.99	-40.935	205.87	400.68	-80.745	43.605	337.96	422.79	683.5	192.3	-106.55	36.572	423.14	124.62	436.62	490.02	92.476	1088.7	167.07	197.04	719.14	525.67	522.26	913.46	619.73	15.673	279.72	477.95	99.768	1089.7	87.956	30.547	271.92	404.71	-124.53	163.71	351.9	235.98	1396.2	162.41	403.98	569.82	179.09	363.06	647.44	157.05	71.5	833.89	42.562	350.54	1338.3	318.91	318.12	928.54	187.81	499.84	384.05	269.89	132.9	941.59	264.72	119.66	941.99	369.33	117.93	1111.8	330.44	446.95	463.96	204.56	177.96	625.28	518.12	251.95	1556.9	258.4	590.77	916.95	618.31	500.14	199.13	286.86	318.31	733.97	145.91	497.98	291.08	278.79	-36	24.645	359.22	150.15	820.64	60.75	599.71	39.635	349.22	153.51	1330.3	451.14	468.42	94.075	349.32	395.27	29.238	308.76	435.37	1576	280.53	475.37	285.15	210.61	442.66	69.853	263.31	-157.44	166.71	435.82	121.86	772.98	14.412	641.56	49.725	334.63	579.7	33.449	261.57	281.31	1030.5	560.55	155.28	1206.8	87.338	-222.24	165.92	390.68
337	1.685	260.14	1562.9	396.19	224.91	1421.6	339.85	295.2	915.42	491.05	302.89	1381.7	482.78	307.34	1206.3	587.86	309.97	1082	643.41	440.93	1004.7	643.67	134.43	941.61	35.444	169.88	532.79	504.21	256.21	617.23	493.32	108.51	335.76	408.24	-31.532	206.46	402.43	-78.64	44.476	338.62	430.72	685.92	192.42	-103.71	38.394	423.17	137.47	435.23	490.95	100.48	1088.8	166.86	205.72	718.32	524.83	526.05	911.87	619.71	25.86	280.44	479.08	108.11	1089.5	87.877	41.15	271.37	406.45	-115.65	166.82	353.29	243.99	1396.3	162	413.81	571.82	179.37	371.43	648.57	157.37	79.305	833.85	42.248	357.97	1338.8	318.68	325.47	929.79	187.77	506.84	383.24	269.28	140.45	941.57	264.82	127.04	942.15	369.12	125.43	1112.3	330.54	454.03	463.93	205.49	188.29	624.26	518.22	259.25	1556.9	257.37	594.8	914.72	618.63	502.89	198.42	287.52	325.48	734.41	145.37	502.51	290.48	278.84	-34.919	24.666	360.44	157.87	820.64	60.618	599.96	40.003	348.63	161.33	1331	450.89	468.45	93.926	349.95	395.4	29.408	308.72	442.6	1576.2	279.28	479.34	284.3	210.86	443.43	70.02	263.53	-148.92	170.83	437.12	129.4	772.78	14.199	643.28	46.944	336.13	580.2	33.099	261.26	286.51	1031.3	559.99	163.56	1206.7	86.918	-212.88	172.68	391.65
338	1.69	267.31	1563.4	395.05	232.13	1422.2	339.31	302.48	915.58	490.74	310.35	1382.4	482.33	313.43	1206.9	587.59	315.06	1082.8	642.99	445.49	1004	643.6	142.49	941.5	35.303	181.76	531.39	504.7	266.74	617.06	493.4	120.77	334.24	409.52	-21.737	207.58	404.02	-75.575	46.134	339.23	437.99	687.86	192.99	-99.96	40.71	423.36	150.26	433.83	491.76	109.11	1088.9	167	214.46	717.43	524.13	529.48	910.22	619.74	36.527	281.37	480	116.36	1089.6	87.777	52.194	271.09	408.29	-106.7	169.9	354.66	251.8	1396.5	161.49	422.91	573.37	179.5	379.57	649.53	157.85	87.4	834.15	42.1	365.24	1339.1	318.55	332.71	930.96	187.87	513.14	382.35	269.25	148.46	941.97	265.07	134.15	942.76	368.64	132.53	1112.6	330.36	460.35	464.05	206.02	198.69	623.23	518.4	266.4	1557.1	256.46	598.27	912.15	618.84	505.04	197.62	288.61	332.97	734.89	145	506.73	289.88	279.29	-33.132	24.456	361.54	165.88	820.5	60.417	600.83	39.908	348.21	168.76	1331.9	450.59	468.62	93.84	350.66	395.66	29.464	309.1	449.65	1576.6	278.29	483.06	283.6	211.53	444.11	70.342	263.96	-139.79	175.05	438.69	137.46	773.07	14.065	645.16	44.148	337.31	580.7	32.831	260.66	291.49	1032.1	559.36	171.7	1206.8	86.653	-203.58	179.33	393.22
